<svg xmlns="http://www.w3.org/2000/svg" width="854" height="511" fill="none" viewBox="0 0 854 511"><path fill="#FF5E6C" d="M256.203 247.119C254.938 248.607 253.08 249.352 250.631 249.352C248.604 249.352 247.057 248.766 245.99 247.594C244.936 246.41 244.402 244.664 244.391 242.355V229.98H247.643V242.268C247.643 245.15 248.814 246.592 251.158 246.592C253.643 246.592 255.295 245.666 256.115 243.814V229.98H259.367V249H256.273L256.203 247.119ZM280.391 239.701C280.391 242.596 279.729 244.928 278.404 246.697C277.08 248.467 275.287 249.352 273.025 249.352C270.717 249.352 268.9 248.619 267.576 247.154V256.312H264.324V229.98H267.295L267.453 232.09C268.777 230.449 270.617 229.629 272.973 229.629C275.258 229.629 277.062 230.49 278.387 232.213C279.723 233.936 280.391 236.332 280.391 239.402V239.701ZM277.139 239.332C277.139 237.188 276.682 235.494 275.768 234.252C274.854 233.01 273.6 232.389 272.006 232.389C270.037 232.389 268.561 233.262 267.576 235.008V244.096C268.549 245.83 270.037 246.697 272.041 246.697C273.6 246.697 274.836 246.082 275.75 244.852C276.676 243.609 277.139 241.77 277.139 239.332ZM293.732 232.898C293.24 232.816 292.707 232.775 292.133 232.775C290 232.775 288.553 233.684 287.791 235.5V249H284.539V229.98H287.703L287.756 232.178C288.822 230.479 290.334 229.629 292.291 229.629C292.924 229.629 293.404 229.711 293.732 229.875V232.898ZM295.525 239.314C295.525 237.451 295.889 235.775 296.615 234.287C297.354 232.799 298.373 231.65 299.674 230.842C300.986 230.033 302.48 229.629 304.156 229.629C306.746 229.629 308.838 230.525 310.432 232.318C312.037 234.111 312.84 236.496 312.84 239.473V239.701C312.84 241.553 312.482 243.217 311.768 244.693C311.064 246.158 310.051 247.301 308.727 248.121C307.414 248.941 305.902 249.352 304.191 249.352C301.613 249.352 299.521 248.455 297.916 246.662C296.322 244.869 295.525 242.496 295.525 239.543V239.314ZM298.795 239.701C298.795 241.811 299.281 243.504 300.254 244.781C301.238 246.059 302.551 246.697 304.191 246.697C305.844 246.697 307.156 246.053 308.129 244.764C309.102 243.463 309.588 241.646 309.588 239.314C309.588 237.229 309.09 235.541 308.094 234.252C307.109 232.951 305.797 232.301 304.156 232.301C302.551 232.301 301.256 232.939 300.271 234.217C299.287 235.494 298.795 237.322 298.795 239.701ZM333.02 239.701C333.02 242.607 332.352 244.945 331.016 246.715C329.68 248.473 327.887 249.352 325.637 249.352C323.234 249.352 321.377 248.502 320.064 246.803L319.906 249H316.918V222H320.17V232.072C321.482 230.443 323.293 229.629 325.602 229.629C327.91 229.629 329.721 230.502 331.033 232.248C332.357 233.994 333.02 236.385 333.02 239.42V239.701ZM329.768 239.332C329.768 237.117 329.34 235.406 328.484 234.199C327.629 232.992 326.398 232.389 324.793 232.389C322.648 232.389 321.107 233.385 320.17 235.377V243.604C321.166 245.596 322.719 246.592 324.828 246.592C326.387 246.592 327.6 245.988 328.467 244.781C329.334 243.574 329.768 241.758 329.768 239.332ZM345.025 249.352C342.447 249.352 340.35 248.508 338.732 246.82C337.115 245.121 336.307 242.854 336.307 240.018V239.42C336.307 237.533 336.664 235.852 337.379 234.375C338.105 232.887 339.113 231.727 340.402 230.895C341.703 230.051 343.109 229.629 344.621 229.629C347.094 229.629 349.016 230.443 350.387 232.072C351.758 233.701 352.443 236.033 352.443 239.068V240.422H339.559C339.605 242.297 340.15 243.814 341.193 244.975C342.248 246.123 343.584 246.697 345.201 246.697C346.35 246.697 347.322 246.463 348.119 245.994C348.916 245.525 349.613 244.904 350.211 244.131L352.197 245.678C350.604 248.127 348.213 249.352 345.025 249.352ZM344.621 232.301C343.309 232.301 342.207 232.781 341.316 233.742C340.426 234.691 339.875 236.027 339.664 237.75H349.191V237.504C349.098 235.852 348.652 234.574 347.855 233.672C347.059 232.758 345.98 232.301 344.621 232.301ZM368.404 232.283C369.846 230.514 371.721 229.629 374.029 229.629C378.049 229.629 380.076 231.896 380.111 236.432V249H376.859V236.414C376.848 235.043 376.531 234.029 375.91 233.373C375.301 232.717 374.346 232.389 373.045 232.389C371.99 232.389 371.064 232.67 370.268 233.232C369.471 233.795 368.85 234.533 368.404 235.447V249H365.152V222H368.404V232.283ZM384.119 239.314C384.119 237.451 384.482 235.775 385.209 234.287C385.947 232.799 386.967 231.65 388.268 230.842C389.58 230.033 391.074 229.629 392.75 229.629C395.34 229.629 397.432 230.525 399.025 232.318C400.631 234.111 401.434 236.496 401.434 239.473V239.701C401.434 241.553 401.076 243.217 400.361 244.693C399.658 246.158 398.645 247.301 397.32 248.121C396.008 248.941 394.496 249.352 392.785 249.352C390.207 249.352 388.115 248.455 386.51 246.662C384.916 244.869 384.119 242.496 384.119 239.543V239.314ZM387.389 239.701C387.389 241.811 387.875 243.504 388.848 244.781C389.832 246.059 391.145 246.697 392.785 246.697C394.438 246.697 395.75 246.053 396.723 244.764C397.695 243.463 398.182 241.646 398.182 239.314C398.182 237.229 397.684 235.541 396.688 234.252C395.703 232.951 394.391 232.301 392.75 232.301C391.145 232.301 389.85 232.939 388.865 234.217C387.881 235.494 387.389 237.322 387.389 239.701ZM404.65 239.314C404.65 237.451 405.014 235.775 405.74 234.287C406.479 232.799 407.498 231.65 408.799 230.842C410.111 230.033 411.605 229.629 413.281 229.629C415.871 229.629 417.963 230.525 419.557 232.318C421.162 234.111 421.965 236.496 421.965 239.473V239.701C421.965 241.553 421.607 243.217 420.893 244.693C420.189 246.158 419.176 247.301 417.852 248.121C416.539 248.941 415.027 249.352 413.316 249.352C410.738 249.352 408.646 248.455 407.041 246.662C405.447 244.869 404.65 242.496 404.65 239.543V239.314ZM407.92 239.701C407.92 241.811 408.406 243.504 409.379 244.781C410.363 246.059 411.676 246.697 413.316 246.697C414.969 246.697 416.281 246.053 417.254 244.764C418.227 243.463 418.713 241.646 418.713 239.314C418.713 237.229 418.215 235.541 417.219 234.252C416.234 232.951 414.922 232.301 413.281 232.301C411.676 232.301 410.381 232.939 409.396 234.217C408.412 235.494 407.92 237.322 407.92 239.701ZM431.352 240.193L429.312 242.32V249H426.061V222H429.312V238.33L431.053 236.238L436.977 229.98H440.932L433.531 237.926L441.793 249H437.979L431.352 240.193Z"/><rect width="741" height="178" x="56" y="322" fill="#FFD29E"/><path fill="#000" d="M335.363 480.24H347.492V483H331.971V457.406H335.363V480.24ZM354.365 483H351.113V463.98H354.365V483ZM350.85 458.936C350.85 458.408 351.008 457.963 351.324 457.6C351.652 457.236 352.133 457.055 352.766 457.055C353.398 457.055 353.879 457.236 354.207 457.6C354.535 457.963 354.699 458.408 354.699 458.936C354.699 459.463 354.535 459.902 354.207 460.254C353.879 460.605 353.398 460.781 352.766 460.781C352.133 460.781 351.652 460.605 351.324 460.254C351.008 459.902 350.85 459.463 350.85 458.936ZM362.662 463.98L362.768 466.371C364.221 464.543 366.119 463.629 368.463 463.629C372.482 463.629 374.51 465.896 374.545 470.432V483H371.293V470.414C371.281 469.043 370.965 468.029 370.344 467.373C369.734 466.717 368.779 466.389 367.479 466.389C366.424 466.389 365.498 466.67 364.701 467.232C363.904 467.795 363.283 468.533 362.838 469.447V483H359.586V463.98H362.662ZM391.191 481.119C389.926 482.607 388.068 483.352 385.619 483.352C383.592 483.352 382.045 482.766 380.979 481.594C379.924 480.41 379.391 478.664 379.379 476.355V463.98H382.631V476.268C382.631 479.15 383.803 480.592 386.146 480.592C388.631 480.592 390.283 479.666 391.104 477.814V463.98H394.355V483H391.262L391.191 481.119ZM405.693 470.924L409.912 463.98H413.709L407.486 473.385L413.902 483H410.141L405.746 475.881L401.352 483H397.572L403.988 473.385L397.766 463.98H401.527L405.693 470.924ZM433.115 471.1L429.986 474.352V483H426.611V457.406H429.986V470.062L441.359 457.406H445.438L435.365 468.709L446.229 483H442.186L433.115 471.1ZM456.107 483.352C453.529 483.352 451.432 482.508 449.814 480.82C448.197 479.121 447.389 476.854 447.389 474.018V473.42C447.389 471.533 447.746 469.852 448.461 468.375C449.188 466.887 450.195 465.727 451.484 464.895C452.785 464.051 454.191 463.629 455.703 463.629C458.176 463.629 460.098 464.443 461.469 466.072C462.84 467.701 463.525 470.033 463.525 473.068V474.422H450.641C450.688 476.297 451.232 477.814 452.275 478.975C453.33 480.123 454.666 480.697 456.283 480.697C457.432 480.697 458.404 480.463 459.201 479.994C459.998 479.525 460.695 478.904 461.293 478.131L463.279 479.678C461.686 482.127 459.295 483.352 456.107 483.352ZM455.703 466.301C454.391 466.301 453.289 466.781 452.398 467.742C451.508 468.691 450.957 470.027 450.746 471.75H460.273V471.504C460.18 469.852 459.734 468.574 458.938 467.672C458.141 466.758 457.062 466.301 455.703 466.301ZM476.498 466.898C476.006 466.816 475.473 466.775 474.898 466.775C472.766 466.775 471.318 467.684 470.557 469.5V483H467.305V463.98H470.469L470.521 466.178C471.588 464.479 473.1 463.629 475.057 463.629C475.689 463.629 476.17 463.711 476.498 463.875V466.898ZM482.58 463.98L482.686 466.371C484.139 464.543 486.037 463.629 488.381 463.629C492.4 463.629 494.428 465.896 494.463 470.432V483H491.211V470.414C491.199 469.043 490.883 468.029 490.262 467.373C489.652 466.717 488.697 466.389 487.396 466.389C486.342 466.389 485.416 466.67 484.619 467.232C483.822 467.795 483.201 468.533 482.756 469.447V483H479.504V463.98H482.58ZM507.26 483.352C504.682 483.352 502.584 482.508 500.967 480.82C499.35 479.121 498.541 476.854 498.541 474.018V473.42C498.541 471.533 498.898 469.852 499.613 468.375C500.34 466.887 501.348 465.727 502.637 464.895C503.938 464.051 505.344 463.629 506.855 463.629C509.328 463.629 511.25 464.443 512.621 466.072C513.992 467.701 514.678 470.033 514.678 473.068V474.422H501.793C501.84 476.297 502.385 477.814 503.428 478.975C504.482 480.123 505.818 480.697 507.436 480.697C508.584 480.697 509.557 480.463 510.354 479.994C511.15 479.525 511.848 478.904 512.445 478.131L514.432 479.678C512.838 482.127 510.447 483.352 507.26 483.352ZM506.855 466.301C505.543 466.301 504.441 466.781 503.551 467.742C502.66 468.691 502.109 470.027 501.898 471.75H511.426V471.504C511.332 469.852 510.887 468.574 510.09 467.672C509.293 466.758 508.215 466.301 506.855 466.301ZM521.99 483H518.738V456H521.99V483Z"/><rect width="158" height="236" x="56" y="86" fill="#C4C4C4"/><path fill="#000" d="M120.104 230.32H109.381L106.973 237H103.492L113.266 211.406H116.219L126.01 237H122.547L120.104 230.32ZM110.4 227.543H119.102L114.742 215.572L110.4 227.543ZM145.012 227.701C145.012 230.596 144.35 232.928 143.025 234.697C141.701 236.467 139.908 237.352 137.646 237.352C135.338 237.352 133.521 236.619 132.197 235.154V244.312H128.945V217.98H131.916L132.074 220.09C133.398 218.449 135.238 217.629 137.594 217.629C139.879 217.629 141.684 218.49 143.008 220.213C144.344 221.936 145.012 224.332 145.012 227.402V227.701ZM141.76 227.332C141.76 225.188 141.303 223.494 140.389 222.252C139.475 221.01 138.221 220.389 136.627 220.389C134.658 220.389 133.182 221.262 132.197 223.008V232.096C133.17 233.83 134.658 234.697 136.662 234.697C138.221 234.697 139.457 234.082 140.371 232.852C141.297 231.609 141.76 229.77 141.76 227.332ZM165.227 227.701C165.227 230.596 164.564 232.928 163.24 234.697C161.916 236.467 160.123 237.352 157.861 237.352C155.553 237.352 153.736 236.619 152.412 235.154V244.312H149.16V217.98H152.131L152.289 220.09C153.613 218.449 155.453 217.629 157.809 217.629C160.094 217.629 161.898 218.49 163.223 220.213C164.559 221.936 165.227 224.332 165.227 227.402V227.701ZM161.975 227.332C161.975 225.188 161.518 223.494 160.604 222.252C159.689 221.01 158.436 220.389 156.842 220.389C154.873 220.389 153.396 221.262 152.412 223.008V232.096C153.385 233.83 154.873 234.697 156.877 234.697C158.436 234.697 159.672 234.082 160.586 232.852C161.512 231.609 161.975 229.77 161.975 227.332Z"/><rect width="158" height="236" x="639" y="86" fill="#A4F4FF" fill-opacity=".65"/><path fill="#000" d="M689.654 202.184H681.428V225H678.07V202.184H669.861V199.406H689.654V202.184ZM700.799 208.898C700.307 208.816 699.773 208.775 699.199 208.775C697.066 208.775 695.619 209.684 694.857 211.5V225H691.605V205.98H694.77L694.822 208.178C695.889 206.479 697.4 205.629 699.357 205.629C699.99 205.629 700.471 205.711 700.799 205.875V208.898ZM714.844 225C714.656 224.625 714.504 223.957 714.387 222.996C712.875 224.566 711.07 225.352 708.973 225.352C707.098 225.352 705.557 224.824 704.35 223.77C703.154 222.703 702.557 221.355 702.557 219.727C702.557 217.746 703.307 216.211 704.807 215.121C706.318 214.02 708.439 213.469 711.17 213.469H714.334V211.975C714.334 210.838 713.994 209.936 713.314 209.268C712.635 208.588 711.633 208.248 710.309 208.248C709.148 208.248 708.176 208.541 707.391 209.127C706.605 209.713 706.213 210.422 706.213 211.254H702.943C702.943 210.305 703.277 209.391 703.945 208.512C704.625 207.621 705.539 206.918 706.688 206.402C707.848 205.887 709.119 205.629 710.502 205.629C712.693 205.629 714.41 206.18 715.652 207.281C716.895 208.371 717.539 209.877 717.586 211.799V220.553C717.586 222.299 717.809 223.688 718.254 224.719V225H714.844ZM709.447 222.521C710.467 222.521 711.434 222.258 712.348 221.73C713.262 221.203 713.924 220.518 714.334 219.674V215.771H711.785C707.801 215.771 705.809 216.938 705.809 219.27C705.809 220.289 706.148 221.086 706.828 221.66C707.508 222.234 708.381 222.521 709.447 222.521ZM730.312 222.697C731.473 222.697 732.486 222.346 733.354 221.643C734.221 220.939 734.701 220.061 734.795 219.006H737.871C737.812 220.096 737.438 221.133 736.746 222.117C736.055 223.102 735.129 223.887 733.969 224.473C732.82 225.059 731.602 225.352 730.312 225.352C727.723 225.352 725.66 224.49 724.125 222.768C722.602 221.033 721.84 218.666 721.84 215.666V215.121C721.84 213.27 722.18 211.623 722.859 210.182C723.539 208.74 724.512 207.621 725.777 206.824C727.055 206.027 728.561 205.629 730.295 205.629C732.428 205.629 734.197 206.268 735.604 207.545C737.021 208.822 737.777 210.48 737.871 212.52H734.795C734.701 211.289 734.232 210.281 733.389 209.496C732.557 208.699 731.525 208.301 730.295 208.301C728.643 208.301 727.359 208.898 726.445 210.094C725.543 211.277 725.092 212.994 725.092 215.244V215.859C725.092 218.051 725.543 219.738 726.445 220.922C727.348 222.105 728.637 222.697 730.312 222.697ZM749.42 225.352C746.842 225.352 744.744 224.508 743.127 222.82C741.51 221.121 740.701 218.854 740.701 216.018V215.42C740.701 213.533 741.059 211.852 741.773 210.375C742.5 208.887 743.508 207.727 744.797 206.895C746.098 206.051 747.504 205.629 749.016 205.629C751.488 205.629 753.41 206.443 754.781 208.072C756.152 209.701 756.838 212.033 756.838 215.068V216.422H743.953C744 218.297 744.545 219.814 745.588 220.975C746.643 222.123 747.979 222.697 749.596 222.697C750.744 222.697 751.717 222.463 752.514 221.994C753.311 221.525 754.008 220.904 754.605 220.131L756.592 221.678C754.998 224.127 752.607 225.352 749.42 225.352ZM749.016 208.301C747.703 208.301 746.602 208.781 745.711 209.742C744.82 210.691 744.27 212.027 744.059 213.75H753.586V213.504C753.492 211.852 753.047 210.574 752.25 209.672C751.453 208.758 750.375 208.301 749.016 208.301ZM769.811 208.898C769.318 208.816 768.785 208.775 768.211 208.775C766.078 208.775 764.631 209.684 763.869 211.5V225H760.617V205.98H763.781L763.834 208.178C764.9 206.479 766.412 205.629 768.369 205.629C769.002 205.629 769.482 205.711 769.811 205.875V208.898Z"/><rect width="210" height="86" x="442" y="349" fill="#B5FFFB"/><rect width="142" height="86" x="242" y="349" fill="#B5FFFB"/><path fill="#000" d="M503.346 373.98V384H499.971V358.406H509.41C512.211 358.406 514.402 359.121 515.984 360.551C517.578 361.98 518.375 363.873 518.375 366.229C518.375 368.713 517.596 370.629 516.037 371.977C514.49 373.312 512.27 373.98 509.375 373.98H503.346ZM503.346 371.221H509.41C511.215 371.221 512.598 370.799 513.559 369.955C514.52 369.1 515 367.869 515 366.264C515 364.74 514.52 363.521 513.559 362.607C512.598 361.693 511.279 361.219 509.604 361.184H503.346V371.221ZM529.818 384.352C527.24 384.352 525.143 383.508 523.525 381.82C521.908 380.121 521.1 377.854 521.1 375.018V374.42C521.1 372.533 521.457 370.852 522.172 369.375C522.898 367.887 523.906 366.727 525.195 365.895C526.496 365.051 527.902 364.629 529.414 364.629C531.887 364.629 533.809 365.443 535.18 367.072C536.551 368.701 537.236 371.033 537.236 374.068V375.422H524.352C524.398 377.297 524.943 378.814 525.986 379.975C527.041 381.123 528.377 381.697 529.994 381.697C531.143 381.697 532.115 381.463 532.912 380.994C533.709 380.525 534.406 379.904 535.004 379.131L536.99 380.678C535.396 383.127 533.006 384.352 529.818 384.352ZM529.414 367.301C528.102 367.301 527 367.781 526.109 368.742C525.219 369.691 524.668 371.027 524.457 372.75H533.984V372.504C533.891 370.852 533.445 369.574 532.648 368.672C531.852 367.758 530.773 367.301 529.414 367.301ZM550.209 367.898C549.717 367.816 549.184 367.775 548.609 367.775C546.477 367.775 545.029 368.684 544.268 370.5V384H541.016V364.98H544.18L544.232 367.178C545.299 365.479 546.811 364.629 548.768 364.629C549.4 364.629 549.881 364.711 550.209 364.875V367.898ZM555.096 384V367.494H552.09V364.98H555.096V363.029C555.096 360.99 555.641 359.414 556.73 358.301C557.82 357.188 559.361 356.631 561.354 356.631C562.104 356.631 562.848 356.73 563.586 356.93L563.41 359.566C562.859 359.461 562.273 359.408 561.652 359.408C560.598 359.408 559.783 359.719 559.209 360.34C558.635 360.949 558.348 361.828 558.348 362.977V364.98H562.408V367.494H558.348V384H555.096ZM499.971 426V400.406H508.338C511.115 400.406 513.201 400.98 514.596 402.129C516.002 403.277 516.705 404.977 516.705 407.227C516.705 408.422 516.365 409.482 515.686 410.408C515.006 411.322 514.08 412.031 512.908 412.535C514.291 412.922 515.381 413.66 516.178 414.75C516.986 415.828 517.391 417.117 517.391 418.617C517.391 420.914 516.646 422.719 515.158 424.031C513.67 425.344 511.566 426 508.848 426H499.971ZM503.346 414.029V423.24H508.918C510.488 423.24 511.725 422.836 512.627 422.027C513.541 421.207 513.998 420.082 513.998 418.652C513.998 415.57 512.322 414.029 508.971 414.029H503.346ZM503.346 411.322H508.443C509.92 411.322 511.098 410.953 511.977 410.215C512.867 409.477 513.312 408.475 513.312 407.209C513.312 405.803 512.902 404.783 512.082 404.15C511.262 403.506 510.014 403.184 508.338 403.184H503.346V411.322ZM533.633 424.119C532.367 425.607 530.51 426.352 528.061 426.352C526.033 426.352 524.486 425.766 523.42 424.594C522.365 423.41 521.832 421.664 521.82 419.355V406.98H525.072V419.268C525.072 422.15 526.244 423.592 528.588 423.592C531.072 423.592 532.725 422.666 533.545 420.814V406.98H536.797V426H533.703L533.633 424.119ZM543.354 426V409.494H540.348V406.98H543.354V405.029C543.354 402.99 543.898 401.414 544.988 400.301C546.078 399.188 547.619 398.631 549.611 398.631C550.361 398.631 551.105 398.73 551.844 398.93L551.668 401.566C551.117 401.461 550.531 401.408 549.91 401.408C548.855 401.408 548.041 401.719 547.467 402.34C546.893 402.949 546.605 403.828 546.605 404.977V406.98H550.666V409.494H546.605V426H543.354ZM555.869 426V409.494H552.863V406.98H555.869V405.029C555.869 402.99 556.414 401.414 557.504 400.301C558.594 399.188 560.135 398.631 562.127 398.631C562.877 398.631 563.621 398.73 564.359 398.93L564.184 401.566C563.633 401.461 563.047 401.408 562.426 401.408C561.371 401.408 560.557 401.719 559.982 402.34C559.408 402.949 559.121 403.828 559.121 404.977V406.98H563.182V409.494H559.121V426H555.869ZM574.256 426.352C571.678 426.352 569.58 425.508 567.963 423.82C566.346 422.121 565.537 419.854 565.537 417.018V416.42C565.537 414.533 565.895 412.852 566.609 411.375C567.336 409.887 568.344 408.727 569.633 407.895C570.934 407.051 572.34 406.629 573.852 406.629C576.324 406.629 578.246 407.443 579.617 409.072C580.988 410.701 581.674 413.033 581.674 416.068V417.422H568.789C568.836 419.297 569.381 420.814 570.424 421.975C571.479 423.123 572.814 423.697 574.432 423.697C575.58 423.697 576.553 423.463 577.35 422.994C578.146 422.525 578.844 421.904 579.441 421.131L581.428 422.678C579.834 425.127 577.443 426.352 574.256 426.352ZM573.852 409.301C572.539 409.301 571.438 409.781 570.547 410.742C569.656 411.691 569.105 413.027 568.895 414.75H578.422V414.504C578.328 412.852 577.883 411.574 577.086 410.672C576.289 409.758 575.211 409.301 573.852 409.301ZM594.646 409.898C594.154 409.816 593.621 409.775 593.047 409.775C590.914 409.775 589.467 410.684 588.705 412.5V426H585.453V406.98H588.617L588.67 409.178C589.736 407.479 591.248 406.629 593.205 406.629C593.838 406.629 594.318 406.711 594.646 406.875V409.898Z"/><path fill="#FF5E6C" d="M257.098 351.785C258.083 352.283 259.286 351.888 259.785 350.902L267.907 334.839C268.405 333.853 268.01 332.65 267.024 332.152C266.039 331.653 264.836 332.048 264.337 333.034L257.118 347.313L242.839 340.093C241.853 339.595 240.65 339.99 240.152 340.976C239.653 341.961 240.048 343.164 241.034 343.663L257.098 351.785ZM212.1 216.624L256.1 350.624L259.9 349.376L215.9 215.376L212.1 216.624Z"/><path fill="#FF5E6C" d="M443.414 394.414C444.195 393.633 444.195 392.367 443.414 391.586L430.686 378.858C429.905 378.077 428.639 378.077 427.858 378.858C427.077 379.639 427.077 380.905 427.858 381.686L439.172 393L427.858 404.314C427.077 405.095 427.077 406.361 427.858 407.142C428.639 407.923 429.905 407.923 430.686 407.142L443.414 394.414ZM384 395H442V391H384V395Z"/><path fill="#FF5E6C" d="M640.781 215.089C640.278 214.106 639.073 213.716 638.089 214.219L622.063 222.415C621.08 222.917 620.69 224.122 621.193 225.106C621.696 226.089 622.901 226.479 623.884 225.976L638.13 218.691L645.415 232.937C645.917 233.92 647.122 234.31 648.106 233.807C649.089 233.304 649.479 232.099 648.976 231.116L640.781 215.089ZM597.903 349.615L640.903 216.615L637.097 215.385L594.097 348.385L597.903 349.615Z"/><path fill="#000" d="M248.971 382V356.406H257.338C260.115 356.406 262.201 356.98 263.596 358.129C265.002 359.277 265.705 360.977 265.705 363.227C265.705 364.422 265.365 365.482 264.686 366.408C264.006 367.322 263.08 368.031 261.908 368.535C263.291 368.922 264.381 369.66 265.178 370.75C265.986 371.828 266.391 373.117 266.391 374.617C266.391 376.914 265.646 378.719 264.158 380.031C262.67 381.344 260.566 382 257.848 382H248.971ZM252.346 370.029V379.24H257.918C259.488 379.24 260.725 378.836 261.627 378.027C262.541 377.207 262.998 376.082 262.998 374.652C262.998 371.57 261.322 370.029 257.971 370.029H252.346ZM252.346 367.322H257.443C258.92 367.322 260.098 366.953 260.977 366.215C261.867 365.477 262.312 364.475 262.312 363.209C262.312 361.803 261.902 360.783 261.082 360.15C260.262 359.506 259.014 359.184 257.338 359.184H252.346V367.322ZM274.775 371.98V382H271.4V356.406H280.84C283.641 356.406 285.832 357.121 287.414 358.551C289.008 359.98 289.805 361.873 289.805 364.229C289.805 366.713 289.025 368.629 287.467 369.977C285.92 371.312 283.699 371.98 280.805 371.98H274.775ZM274.775 369.221H280.84C282.645 369.221 284.027 368.799 284.988 367.955C285.949 367.1 286.43 365.869 286.43 364.264C286.43 362.74 285.949 361.521 284.988 360.607C284.027 359.693 282.709 359.219 281.033 359.184H274.775V369.221ZM308.227 370.697H297.486V382H294.111V356.406H309.967V359.184H297.486V367.938H308.227V370.697ZM252.346 413.98V424H248.971V398.406H258.41C261.211 398.406 263.402 399.121 264.984 400.551C266.578 401.98 267.375 403.873 267.375 406.229C267.375 408.713 266.596 410.629 265.037 411.977C263.49 413.312 261.27 413.98 258.375 413.98H252.346ZM252.346 411.221H258.41C260.215 411.221 261.598 410.799 262.559 409.955C263.52 409.1 264 407.869 264 406.264C264 404.74 263.52 403.521 262.559 402.607C261.598 401.693 260.279 401.219 258.604 401.184H252.346V411.221ZM280.365 407.898C279.873 407.816 279.34 407.775 278.766 407.775C276.633 407.775 275.186 408.684 274.424 410.5V424H271.172V404.98H274.336L274.389 407.178C275.455 405.479 276.967 404.629 278.924 404.629C279.557 404.629 280.037 404.711 280.365 404.875V407.898ZM282.158 414.314C282.158 412.451 282.521 410.775 283.248 409.287C283.986 407.799 285.006 406.65 286.307 405.842C287.619 405.033 289.113 404.629 290.789 404.629C293.379 404.629 295.471 405.525 297.064 407.318C298.67 409.111 299.473 411.496 299.473 414.473V414.701C299.473 416.553 299.115 418.217 298.4 419.693C297.697 421.158 296.684 422.301 295.359 423.121C294.047 423.941 292.535 424.352 290.824 424.352C288.246 424.352 286.154 423.455 284.549 421.662C282.955 419.869 282.158 417.496 282.158 414.543V414.314ZM285.428 414.701C285.428 416.811 285.914 418.504 286.887 419.781C287.871 421.059 289.184 421.697 290.824 421.697C292.477 421.697 293.789 421.053 294.762 419.764C295.734 418.463 296.221 416.646 296.221 414.314C296.221 412.229 295.723 410.541 294.727 409.252C293.742 407.951 292.43 407.301 290.789 407.301C289.184 407.301 287.889 407.939 286.904 409.217C285.92 410.494 285.428 412.322 285.428 414.701ZM302.777 414.332C302.777 411.367 303.463 409.012 304.834 407.266C306.205 405.508 308.021 404.629 310.283 404.629C312.604 404.629 314.414 405.449 315.715 407.09L315.873 404.98H318.844V423.543C318.844 426.004 318.111 427.943 316.646 429.361C315.193 430.779 313.236 431.488 310.775 431.488C309.404 431.488 308.062 431.195 306.75 430.609C305.438 430.023 304.436 429.221 303.744 428.201L305.432 426.25C306.826 427.973 308.531 428.834 310.547 428.834C312.129 428.834 313.359 428.389 314.238 427.498C315.129 426.607 315.574 425.354 315.574 423.736V422.102C314.273 423.602 312.498 424.352 310.248 424.352C308.021 424.352 306.217 423.455 304.834 421.662C303.463 419.869 302.777 417.426 302.777 414.332ZM306.047 414.701C306.047 416.846 306.486 418.533 307.365 419.764C308.244 420.982 309.475 421.592 311.057 421.592C313.107 421.592 314.613 420.66 315.574 418.797V410.113C314.578 408.297 313.084 407.389 311.092 407.389C309.51 407.389 308.273 408.004 307.383 409.234C306.492 410.465 306.047 412.287 306.047 414.701ZM332.959 407.898C332.467 407.816 331.934 407.775 331.359 407.775C329.227 407.775 327.779 408.684 327.018 410.5V424H323.766V404.98H326.93L326.982 407.178C328.049 405.479 329.561 404.629 331.518 404.629C332.15 404.629 332.631 404.711 332.959 404.875V407.898ZM347.004 424C346.816 423.625 346.664 422.957 346.547 421.996C345.035 423.566 343.23 424.352 341.133 424.352C339.258 424.352 337.717 423.824 336.51 422.77C335.314 421.703 334.717 420.355 334.717 418.727C334.717 416.746 335.467 415.211 336.967 414.121C338.479 413.02 340.6 412.469 343.33 412.469H346.494V410.975C346.494 409.838 346.154 408.936 345.475 408.268C344.795 407.588 343.793 407.248 342.469 407.248C341.309 407.248 340.336 407.541 339.551 408.127C338.766 408.713 338.373 409.422 338.373 410.254H335.104C335.104 409.305 335.438 408.391 336.105 407.512C336.785 406.621 337.699 405.918 338.848 405.402C340.008 404.887 341.279 404.629 342.662 404.629C344.854 404.629 346.57 405.18 347.812 406.281C349.055 407.371 349.699 408.877 349.746 410.799V419.553C349.746 421.299 349.969 422.688 350.414 423.719V424H347.004ZM341.607 421.521C342.627 421.521 343.594 421.258 344.508 420.73C345.422 420.203 346.084 419.518 346.494 418.674V414.771H343.945C339.961 414.771 337.969 415.938 337.969 418.27C337.969 419.289 338.309 420.086 338.988 420.66C339.668 421.234 340.541 421.521 341.607 421.521ZM357.902 404.98L357.99 407.09C359.385 405.449 361.266 404.629 363.633 404.629C366.293 404.629 368.104 405.648 369.064 407.688C369.697 406.773 370.518 406.035 371.525 405.473C372.545 404.91 373.746 404.629 375.129 404.629C379.301 404.629 381.422 406.838 381.492 411.256V424H378.24V411.449C378.24 410.09 377.93 409.076 377.309 408.408C376.688 407.729 375.645 407.389 374.18 407.389C372.973 407.389 371.971 407.752 371.174 408.479C370.377 409.193 369.914 410.16 369.785 411.379V424H366.516V411.537C366.516 408.771 365.162 407.389 362.455 407.389C360.322 407.389 358.863 408.297 358.078 410.113V424H354.826V404.98H357.902Z"/></svg>